<?xml version="1.0" encoding="UTF-8" standalone="no"?>
<!DOCTYPE svg PUBLIC "-//W3C//DTD SVG 1.1//EN"
 "http://www.w3.org/Graphics/SVG/1.1/DTD/svg11.dtd">
<!-- Generated by graphviz version 2.26.3 (20100126.1600)
 -->
<!-- Title: controllers_diagram Pages: 1 -->
<svg width="1082pt" height="1021pt"
 viewBox="0.00 0.00 1082.00 1021.00" xmlns="http://www.w3.org/2000/svg" xmlns:xlink="http://www.w3.org/1999/xlink">
<g id="graph1" class="graph" transform="scale(1 1) rotate(0) translate(4 1017)">
<title>controllers_diagram</title>
<polygon fill="white" stroke="white" points="-4,5 -4,-1017 1079,-1017 1079,5 -4,5"/>
<!-- _diagram_info -->
<g id="node1" class="node"><title>_diagram_info</title>
<text text-anchor="start" x="9" y="-903.3" font-family="Times Roman,serif" font-size="13.00">Controllers diagram</text>
<text text-anchor="start" x="9" y="-886.3" font-family="Times Roman,serif" font-size="13.00">Date: Nov 28 2014 &#45; 17:01</text>
<text text-anchor="start" x="9" y="-869.3" font-family="Times Roman,serif" font-size="13.00">Migration version: 20130712112209</text>
<text text-anchor="start" x="9" y="-852.3" font-family="Times Roman,serif" font-size="13.00">Generated by RailRoady 1.2.0</text>
<text text-anchor="start" x="9" y="-835.3" font-family="Times Roman,serif" font-size="13.00">http://railroady.prestonlee.com</text>
</g>
<!-- StaticPagesController -->
<g id="node2" class="node"><title>StaticPagesController</title>
<polyline fill="none" stroke="black" points="113,-476.5 254,-476.5 "/>
<path fill="none" stroke="black" d="M254,-476.5C260,-476.5 266,-482.5 266,-488.5"/>
<polyline fill="none" stroke="black" points="266,-488.5 266,-564.5 "/>
<path fill="none" stroke="black" d="M266,-564.5C266,-570.5 260,-576.5 254,-576.5"/>
<polyline fill="none" stroke="black" points="254,-576.5 113,-576.5 "/>
<path fill="none" stroke="black" d="M113,-576.5C107,-576.5 101,-570.5 101,-564.5"/>
<polyline fill="none" stroke="black" points="101,-564.5 101,-488.5 "/>
<path fill="none" stroke="black" d="M101,-488.5C101,-482.5 107,-476.5 113,-476.5"/>
<text text-anchor="middle" x="183.5" y="-559.9" font-family="Times Roman,serif" font-size="14.00">StaticPagesController</text>
<polyline fill="none" stroke="black" points="101,-550.5 266,-550.5 "/>
<polyline fill="none" stroke="black" points="101,-526.5 266,-526.5 "/>
<polyline fill="none" stroke="black" points="101,-502.5 266,-502.5 "/>
<text text-anchor="start" x="109" y="-485.9" font-family="Times Roman,serif" font-size="14.00">_layout</text>
</g>
<!-- DocumentsController -->
<g id="node3" class="node"><title>DocumentsController</title>
<polyline fill="none" stroke="black" points="63,-26.5 286,-26.5 "/>
<path fill="none" stroke="black" d="M286,-26.5C292,-26.5 298,-32.5 298,-38.5"/>
<polyline fill="none" stroke="black" points="298,-38.5 298,-188.5 "/>
<path fill="none" stroke="black" d="M298,-188.5C298,-194.5 292,-200.5 286,-200.5"/>
<polyline fill="none" stroke="black" points="286,-200.5 63,-200.5 "/>
<path fill="none" stroke="black" d="M63,-200.5C57,-200.5 51,-194.5 51,-188.5"/>
<polyline fill="none" stroke="black" points="51,-188.5 51,-38.5 "/>
<path fill="none" stroke="black" d="M51,-38.5C51,-32.5 57,-26.5 63,-26.5"/>
<text text-anchor="middle" x="174.5" y="-183.9" font-family="Times Roman,serif" font-size="14.00">DocumentsController</text>
<polyline fill="none" stroke="black" points="51,-174.5 298,-174.5 "/>
<text text-anchor="start" x="59" y="-157.9" font-family="Times Roman,serif" font-size="14.00">_callback_before_136</text>
<text text-anchor="start" x="59" y="-139.9" font-family="Times Roman,serif" font-size="14.00">_one_time_conditions_valid_137?</text>
<text text-anchor="start" x="59" y="-121.9" font-family="Times Roman,serif" font-size="14.00">create</text>
<text text-anchor="start" x="59" y="-103.9" font-family="Times Roman,serif" font-size="14.00">index</text>
<text text-anchor="start" x="59" y="-85.9" font-family="Times Roman,serif" font-size="14.00">new</text>
<polyline fill="none" stroke="black" points="51,-76.5 298,-76.5 "/>
<polyline fill="none" stroke="black" points="51,-52.5 298,-52.5 "/>
<text text-anchor="start" x="59" y="-35.9" font-family="Times Roman,serif" font-size="14.00">_layout</text>
</g>
<!-- Api::V1::UsersController -->
<g id="node4" class="node"><title>Api::V1::UsersController</title>
<polyline fill="none" stroke="black" points="613,-226.5 836,-226.5 "/>
<path fill="none" stroke="black" d="M836,-226.5C842,-226.5 848,-232.5 848,-238.5"/>
<polyline fill="none" stroke="black" points="848,-238.5 848,-460.5 "/>
<path fill="none" stroke="black" d="M848,-460.5C848,-466.5 842,-472.5 836,-472.5"/>
<polyline fill="none" stroke="black" points="836,-472.5 613,-472.5 "/>
<path fill="none" stroke="black" d="M613,-472.5C607,-472.5 601,-466.5 601,-460.5"/>
<polyline fill="none" stroke="black" points="601,-460.5 601,-238.5 "/>
<path fill="none" stroke="black" d="M601,-238.5C601,-232.5 607,-226.5 613,-226.5"/>
<text text-anchor="middle" x="724.5" y="-455.9" font-family="Times Roman,serif" font-size="14.00">Api::V1::UsersController</text>
<polyline fill="none" stroke="black" points="601,-446.5 848,-446.5 "/>
<text text-anchor="start" x="609" y="-429.9" font-family="Times Roman,serif" font-size="14.00">_callback_before_138</text>
<text text-anchor="start" x="609" y="-411.9" font-family="Times Roman,serif" font-size="14.00">_callback_before_140</text>
<text text-anchor="start" x="609" y="-393.9" font-family="Times Roman,serif" font-size="14.00">_one_time_conditions_valid_139?</text>
<text text-anchor="start" x="609" y="-375.9" font-family="Times Roman,serif" font-size="14.00">_one_time_conditions_valid_141?</text>
<text text-anchor="start" x="609" y="-357.9" font-family="Times Roman,serif" font-size="14.00">index</text>
<text text-anchor="start" x="609" y="-339.9" font-family="Times Roman,serif" font-size="14.00">me</text>
<text text-anchor="start" x="609" y="-321.9" font-family="Times Roman,serif" font-size="14.00">users_for_ids</text>
<text text-anchor="start" x="609" y="-303.9" font-family="Times Roman,serif" font-size="14.00">validate_users</text>
<polyline fill="none" stroke="black" points="601,-294.5 848,-294.5 "/>
<polyline fill="none" stroke="black" points="601,-270.5 848,-270.5 "/>
<text text-anchor="start" x="609" y="-253.9" font-family="Times Roman,serif" font-size="14.00">_layout</text>
<text text-anchor="start" x="609" y="-235.9" font-family="Times Roman,serif" font-size="14.00">current_user</text>
</g>
<!-- Api::V1::OrganizationsController -->
<g id="node5" class="node"><title>Api::V1::OrganizationsController</title>
<polyline fill="none" stroke="black" points="438,-1.5 661,-1.5 "/>
<path fill="none" stroke="black" d="M661,-1.5C667,-1.5 673,-7.5 673,-13.5"/>
<polyline fill="none" stroke="black" points="673,-13.5 673,-163.5 "/>
<path fill="none" stroke="black" d="M673,-163.5C673,-169.5 667,-175.5 661,-175.5"/>
<polyline fill="none" stroke="black" points="661,-175.5 438,-175.5 "/>
<path fill="none" stroke="black" d="M438,-175.5C432,-175.5 426,-169.5 426,-163.5"/>
<polyline fill="none" stroke="black" points="426,-163.5 426,-13.5 "/>
<path fill="none" stroke="black" d="M426,-13.5C426,-7.5 432,-1.5 438,-1.5"/>
<text text-anchor="middle" x="549.5" y="-158.9" font-family="Times Roman,serif" font-size="14.00">Api::V1::OrganizationsController</text>
<polyline fill="none" stroke="black" points="426,-149.5 673,-149.5 "/>
<text text-anchor="start" x="434" y="-132.9" font-family="Times Roman,serif" font-size="14.00">_callback_before_190</text>
<text text-anchor="start" x="434" y="-114.9" font-family="Times Roman,serif" font-size="14.00">_one_time_conditions_valid_191?</text>
<text text-anchor="start" x="434" y="-96.9" font-family="Times Roman,serif" font-size="14.00">index</text>
<text text-anchor="start" x="434" y="-78.9" font-family="Times Roman,serif" font-size="14.00">show</text>
<text text-anchor="start" x="434" y="-60.9" font-family="Times Roman,serif" font-size="14.00">validate_orgs</text>
<polyline fill="none" stroke="black" points="426,-51.5 673,-51.5 "/>
<polyline fill="none" stroke="black" points="426,-27.5 673,-27.5 "/>
<text text-anchor="start" x="434" y="-10.9" font-family="Times Roman,serif" font-size="14.00">_layout</text>
</g>
<!-- Api::V1::DeletedOrganizationsController -->
<g id="node6" class="node"><title>Api::V1::DeletedOrganizationsController</title>
<polyline fill="none" stroke="black" points="738,-76.5 1009,-76.5 "/>
<path fill="none" stroke="black" d="M1009,-76.5C1015,-76.5 1021,-82.5 1021,-88.5"/>
<polyline fill="none" stroke="black" points="1021,-88.5 1021,-166.5 "/>
<path fill="none" stroke="black" d="M1021,-166.5C1021,-172.5 1015,-178.5 1009,-178.5"/>
<polyline fill="none" stroke="black" points="1009,-178.5 738,-178.5 "/>
<path fill="none" stroke="black" d="M738,-178.5C732,-178.5 726,-172.5 726,-166.5"/>
<polyline fill="none" stroke="black" points="726,-166.5 726,-88.5 "/>
<path fill="none" stroke="black" d="M726,-88.5C726,-82.5 732,-76.5 738,-76.5"/>
<text text-anchor="middle" x="873.5" y="-161.9" font-family="Times Roman,serif" font-size="14.00">Api::V1::DeletedOrganizationsController</text>
<polyline fill="none" stroke="black" points="726,-152.5 1021,-152.5 "/>
<text text-anchor="start" x="734" y="-135.9" font-family="Times Roman,serif" font-size="14.00">index</text>
<polyline fill="none" stroke="black" points="726,-126.5 1021,-126.5 "/>
<polyline fill="none" stroke="black" points="726,-102.5 1021,-102.5 "/>
<text text-anchor="start" x="734" y="-85.9" font-family="Times Roman,serif" font-size="14.00">_layout</text>
</g>
<!-- UsersController -->
<g id="node7" class="node"><title>UsersController</title>
<polyline fill="none" stroke="black" points="313,-601.5 536,-601.5 "/>
<path fill="none" stroke="black" d="M536,-601.5C542,-601.5 548,-607.5 548,-613.5"/>
<polyline fill="none" stroke="black" points="548,-613.5 548,-799.5 "/>
<path fill="none" stroke="black" d="M548,-799.5C548,-805.5 542,-811.5 536,-811.5"/>
<polyline fill="none" stroke="black" points="536,-811.5 313,-811.5 "/>
<path fill="none" stroke="black" d="M313,-811.5C307,-811.5 301,-805.5 301,-799.5"/>
<polyline fill="none" stroke="black" points="301,-799.5 301,-613.5 "/>
<path fill="none" stroke="black" d="M301,-613.5C301,-607.5 307,-601.5 313,-601.5"/>
<text text-anchor="middle" x="424.5" y="-794.9" font-family="Times Roman,serif" font-size="14.00">UsersController</text>
<polyline fill="none" stroke="black" points="301,-785.5 548,-785.5 "/>
<text text-anchor="start" x="309" y="-768.9" font-family="Times Roman,serif" font-size="14.00">_callback_before_192</text>
<text text-anchor="start" x="309" y="-750.9" font-family="Times Roman,serif" font-size="14.00">_one_time_conditions_valid_193?</text>
<text text-anchor="start" x="309" y="-732.9" font-family="Times Roman,serif" font-size="14.00">create</text>
<text text-anchor="start" x="309" y="-714.9" font-family="Times Roman,serif" font-size="14.00">edit</text>
<text text-anchor="start" x="309" y="-696.9" font-family="Times Roman,serif" font-size="14.00">index</text>
<text text-anchor="start" x="309" y="-678.9" font-family="Times Roman,serif" font-size="14.00">new</text>
<text text-anchor="start" x="309" y="-660.9" font-family="Times Roman,serif" font-size="14.00">update</text>
<polyline fill="none" stroke="black" points="301,-651.5 548,-651.5 "/>
<polyline fill="none" stroke="black" points="301,-627.5 548,-627.5 "/>
<text text-anchor="start" x="309" y="-610.9" font-family="Times Roman,serif" font-size="14.00">_layout</text>
</g>
<!-- OrganizationsController -->
<g id="node8" class="node"><title>OrganizationsController</title>
<polyline fill="none" stroke="black" points="313,-251.5 536,-251.5 "/>
<path fill="none" stroke="black" d="M536,-251.5C542,-251.5 548,-257.5 548,-263.5"/>
<polyline fill="none" stroke="black" points="548,-263.5 548,-539.5 "/>
<path fill="none" stroke="black" d="M548,-539.5C548,-545.5 542,-551.5 536,-551.5"/>
<polyline fill="none" stroke="black" points="536,-551.5 313,-551.5 "/>
<path fill="none" stroke="black" d="M313,-551.5C307,-551.5 301,-545.5 301,-539.5"/>
<polyline fill="none" stroke="black" points="301,-539.5 301,-263.5 "/>
<path fill="none" stroke="black" d="M301,-263.5C301,-257.5 307,-251.5 313,-251.5"/>
<text text-anchor="middle" x="424.5" y="-534.9" font-family="Times Roman,serif" font-size="14.00">OrganizationsController</text>
<polyline fill="none" stroke="black" points="301,-525.5 548,-525.5 "/>
<text text-anchor="start" x="309" y="-508.9" font-family="Times Roman,serif" font-size="14.00">_callback_before_194</text>
<text text-anchor="start" x="309" y="-490.9" font-family="Times Roman,serif" font-size="14.00">_one_time_conditions_valid_195?</text>
<text text-anchor="start" x="309" y="-472.9" font-family="Times Roman,serif" font-size="14.00">_one_time_conditions_valid_199?</text>
<text text-anchor="start" x="309" y="-454.9" font-family="Times Roman,serif" font-size="14.00">activate</text>
<text text-anchor="start" x="309" y="-436.9" font-family="Times Roman,serif" font-size="14.00">create</text>
<text text-anchor="start" x="309" y="-418.9" font-family="Times Roman,serif" font-size="14.00">deactivate</text>
<text text-anchor="start" x="309" y="-400.9" font-family="Times Roman,serif" font-size="14.00">destroy</text>
<text text-anchor="start" x="309" y="-382.9" font-family="Times Roman,serif" font-size="14.00">edit</text>
<text text-anchor="start" x="309" y="-364.9" font-family="Times Roman,serif" font-size="14.00">index</text>
<text text-anchor="start" x="309" y="-346.9" font-family="Times Roman,serif" font-size="14.00">new</text>
<text text-anchor="start" x="309" y="-328.9" font-family="Times Roman,serif" font-size="14.00">show</text>
<text text-anchor="start" x="309" y="-310.9" font-family="Times Roman,serif" font-size="14.00">update</text>
<polyline fill="none" stroke="black" points="301,-301.5 548,-301.5 "/>
<polyline fill="none" stroke="black" points="301,-277.5 548,-277.5 "/>
<text text-anchor="start" x="309" y="-260.9" font-family="Times Roman,serif" font-size="14.00">_layout</text>
</g>
<!-- ApplicationController -->
<g id="node9" class="node"><title>ApplicationController</title>
<polyline fill="none" stroke="black" points="613,-526.5 871,-526.5 "/>
<path fill="none" stroke="black" d="M871,-526.5C877,-526.5 883,-532.5 883,-538.5"/>
<polyline fill="none" stroke="black" points="883,-538.5 883,-742.5 "/>
<path fill="none" stroke="black" d="M883,-742.5C883,-748.5 877,-754.5 871,-754.5"/>
<polyline fill="none" stroke="black" points="871,-754.5 613,-754.5 "/>
<path fill="none" stroke="black" d="M613,-754.5C607,-754.5 601,-748.5 601,-742.5"/>
<polyline fill="none" stroke="black" points="601,-742.5 601,-538.5 "/>
<path fill="none" stroke="black" d="M601,-538.5C601,-532.5 607,-526.5 613,-526.5"/>
<text text-anchor="middle" x="742" y="-737.9" font-family="Times Roman,serif" font-size="14.00">ApplicationController</text>
<polyline fill="none" stroke="black" points="601,-728.5 883,-728.5 "/>
<text text-anchor="start" x="609" y="-711.9" font-family="Times Roman,serif" font-size="14.00">_one_time_conditions_valid_131?</text>
<text text-anchor="start" x="609" y="-693.9" font-family="Times Roman,serif" font-size="14.00">_one_time_conditions_valid_133?</text>
<text text-anchor="start" x="609" y="-675.9" font-family="Times Roman,serif" font-size="14.00">_one_time_conditions_valid_135?</text>
<text text-anchor="start" x="609" y="-657.9" font-family="Times Roman,serif" font-size="14.00">current_user</text>
<text text-anchor="start" x="609" y="-639.9" font-family="Times Roman,serif" font-size="14.00">default_url_options</text>
<text text-anchor="start" x="609" y="-621.9" font-family="Times Roman,serif" font-size="14.00">has_signed_in_user?</text>
<polyline fill="none" stroke="black" points="601,-612.5 883,-612.5 "/>
<polyline fill="none" stroke="black" points="601,-588.5 883,-588.5 "/>
<text text-anchor="start" x="609" y="-571.9" font-family="Times Roman,serif" font-size="14.00">_layout</text>
<text text-anchor="start" x="609" y="-553.9" font-family="Times Roman,serif" font-size="14.00">make_action_mailer_use_request_host</text>
<text text-anchor="start" x="609" y="-535.9" font-family="Times Roman,serif" font-size="14.00">set_locale</text>
</g>
<!-- SessionsController -->
<g id="node10" class="node"><title>SessionsController</title>
<polyline fill="none" stroke="black" points="838,-801.5 1061,-801.5 "/>
<path fill="none" stroke="black" d="M1061,-801.5C1067,-801.5 1073,-807.5 1073,-813.5"/>
<polyline fill="none" stroke="black" points="1073,-813.5 1073,-999.5 "/>
<path fill="none" stroke="black" d="M1073,-999.5C1073,-1005.5 1067,-1011.5 1061,-1011.5"/>
<polyline fill="none" stroke="black" points="1061,-1011.5 838,-1011.5 "/>
<path fill="none" stroke="black" d="M838,-1011.5C832,-1011.5 826,-1005.5 826,-999.5"/>
<polyline fill="none" stroke="black" points="826,-999.5 826,-813.5 "/>
<path fill="none" stroke="black" d="M826,-813.5C826,-807.5 832,-801.5 838,-801.5"/>
<text text-anchor="middle" x="949.5" y="-994.9" font-family="Times Roman,serif" font-size="14.00">SessionsController</text>
<polyline fill="none" stroke="black" points="826,-985.5 1073,-985.5 "/>
<text text-anchor="start" x="834" y="-968.9" font-family="Times Roman,serif" font-size="14.00">_one_time_conditions_valid_203?</text>
<text text-anchor="start" x="834" y="-950.9" font-family="Times Roman,serif" font-size="14.00">_one_time_conditions_valid_207?</text>
<text text-anchor="start" x="834" y="-932.9" font-family="Times Roman,serif" font-size="14.00">create</text>
<text text-anchor="start" x="834" y="-914.9" font-family="Times Roman,serif" font-size="14.00">destroy</text>
<text text-anchor="start" x="834" y="-896.9" font-family="Times Roman,serif" font-size="14.00">new</text>
<polyline fill="none" stroke="black" points="826,-887.5 1073,-887.5 "/>
<polyline fill="none" stroke="black" points="826,-863.5 1073,-863.5 "/>
<text text-anchor="start" x="834" y="-846.9" font-family="Times Roman,serif" font-size="14.00">_layout</text>
<text text-anchor="start" x="834" y="-828.9" font-family="Times Roman,serif" font-size="14.00">organization_active?</text>
<text text-anchor="start" x="834" y="-810.9" font-family="Times Roman,serif" font-size="14.00">user_active?</text>
</g>
<!-- PasswordResetsController -->
<g id="node11" class="node"><title>PasswordResetsController</title>
<polyline fill="none" stroke="black" points="63,-626.5 235,-626.5 "/>
<path fill="none" stroke="black" d="M235,-626.5C241,-626.5 247,-632.5 247,-638.5"/>
<polyline fill="none" stroke="black" points="247,-638.5 247,-770.5 "/>
<path fill="none" stroke="black" d="M247,-770.5C247,-776.5 241,-782.5 235,-782.5"/>
<polyline fill="none" stroke="black" points="235,-782.5 63,-782.5 "/>
<path fill="none" stroke="black" d="M63,-782.5C57,-782.5 51,-776.5 51,-770.5"/>
<polyline fill="none" stroke="black" points="51,-770.5 51,-638.5 "/>
<path fill="none" stroke="black" d="M51,-638.5C51,-632.5 57,-626.5 63,-626.5"/>
<text text-anchor="middle" x="149" y="-765.9" font-family="Times Roman,serif" font-size="14.00">PasswordResetsController</text>
<polyline fill="none" stroke="black" points="51,-756.5 247,-756.5 "/>
<text text-anchor="start" x="59" y="-739.9" font-family="Times Roman,serif" font-size="14.00">create</text>
<text text-anchor="start" x="59" y="-721.9" font-family="Times Roman,serif" font-size="14.00">edit</text>
<text text-anchor="start" x="59" y="-703.9" font-family="Times Roman,serif" font-size="14.00">new</text>
<text text-anchor="start" x="59" y="-685.9" font-family="Times Roman,serif" font-size="14.00">update</text>
<polyline fill="none" stroke="black" points="51,-676.5 247,-676.5 "/>
<polyline fill="none" stroke="black" points="51,-652.5 247,-652.5 "/>
<text text-anchor="start" x="59" y="-635.9" font-family="Times Roman,serif" font-size="14.00">_layout</text>
</g>
</g>
</svg>
