<?xml version="1.0" encoding="UTF-8" standalone="no"?>
<!DOCTYPE svg PUBLIC "-//W3C//DTD SVG 1.1//EN"
 "http://www.w3.org/Graphics/SVG/1.1/DTD/svg11.dtd">
<!-- Generated by graphviz version 2.26.3 (20100126.1600)
 -->
<!-- Title: models_diagram Pages: 1 -->
<svg width="1270pt" height="176pt"
 viewBox="0.00 0.00 1270.00 176.00" xmlns="http://www.w3.org/2000/svg" xmlns:xlink="http://www.w3.org/1999/xlink">
<g id="graph1" class="graph" transform="scale(1 1) rotate(0) translate(4 172)">
<title>models_diagram</title>
<polygon fill="white" stroke="white" points="-4,5 -4,-172 1267,-172 1267,5 -4,5"/>
<!-- _diagram_info -->
<g id="node1" class="node"><title>_diagram_info</title>
<text text-anchor="start" x="8" y="-151.8" font-family="Times Roman,serif" font-size="13.00">Models diagram</text>
<text text-anchor="start" x="8" y="-134.8" font-family="Times Roman,serif" font-size="13.00">Date: Nov 28 2014 &#45; 17:01</text>
<text text-anchor="start" x="8" y="-117.8" font-family="Times Roman,serif" font-size="13.00">Migration version: 20130712112209</text>
<text text-anchor="start" x="8" y="-100.8" font-family="Times Roman,serif" font-size="13.00">Generated by RailRoady 1.2.0</text>
<text text-anchor="start" x="8" y="-83.8" font-family="Times Roman,serif" font-size="13.00">http://railroady.prestonlee.com</text>
</g>
<!-- PrivacyPolicy -->
<g id="node2" class="node"><title>PrivacyPolicy</title>
<ellipse fill="none" stroke="black" cx="343" cy="-121" rx="74.9533" ry="18.3848"/>
<text text-anchor="middle" x="343" y="-117.4" font-family="Times Roman,serif" font-size="14.00">PrivacyPolicy</text>
</g>
<!-- SoftDeletable -->
<g id="node3" class="node"><title>SoftDeletable</title>
<polygon fill="none" stroke="black" stroke-dasharray="1,5" points="546,-139 436,-139 436,-103 546,-103 546,-139"/>
<text text-anchor="middle" x="491" y="-117.4" font-family="Times Roman,serif" font-size="14.00">SoftDeletable</text>
</g>
<!-- Organization -->
<g id="node4" class="node"><title>Organization</title>
<ellipse fill="none" stroke="black" cx="639" cy="-121" rx="75.1594" ry="18.3848"/>
<text text-anchor="middle" x="639" y="-117.4" font-family="Times Roman,serif" font-size="14.00">Organization</text>
</g>
<!-- User -->
<g id="node7" class="node"><title>User</title>
<ellipse fill="none" stroke="black" cx="639" cy="-19" rx="33.9411" ry="18.3848"/>
<text text-anchor="middle" x="639" y="-15.4" font-family="Times Roman,serif" font-size="14.00">User</text>
</g>
<!-- Organization&#45;&gt;User -->
<g id="edge2" class="edge"><title>Organization&#45;&gt;User</title>
<path fill="none" stroke="#f90f29" d="M639,-94.0151C639,-79.8348 639,-62.4446 639,-47.9795"/>
<ellipse fill="none" stroke="#f90f29" cx="639" cy="-98.2916" rx="4" ry="4"/>
<polygon fill="#f90f29" stroke="#f90f29" points="639,-47.5898 643.5,-37.5897 639,-42.5898 639,-37.5898 639,-37.5898 639,-37.5898 639,-42.5898 634.5,-37.5898 639,-47.5898 639,-47.5898"/>
</g>
<!-- TermsOfService -->
<g id="node5" class="node"><title>TermsOfService</title>
<ellipse fill="none" stroke="black" cx="819" cy="-121" rx="86.9741" ry="18.3848"/>
<text text-anchor="middle" x="819" y="-117.4" font-family="Times Roman,serif" font-size="14.00">TermsOfService</text>
</g>
<!-- Ability -->
<g id="node6" class="node"><title>Ability</title>
<polygon fill="none" stroke="black" points="984,-139 924,-139 924,-103 984,-103 984,-139"/>
<text text-anchor="middle" x="954" y="-117.4" font-family="Times Roman,serif" font-size="14.00">Ability</text>
</g>
<!-- Document -->
<g id="node8" class="node"><title>Document</title>
<polygon fill="none" stroke="black" stroke-dasharray="1,5" points="1090,-139 1002,-139 1002,-103 1090,-103 1090,-139"/>
<text text-anchor="middle" x="1046" y="-117.4" font-family="Times Roman,serif" font-size="14.00">Document</text>
</g>
<!-- DocumentPresenter -->
<g id="node9" class="node"><title>DocumentPresenter</title>
<polygon fill="none" stroke="black" points="1262,-139 1108,-139 1108,-103 1262,-103 1262,-139"/>
<text text-anchor="middle" x="1185" y="-117.4" font-family="Times Roman,serif" font-size="14.00">DocumentPresenter</text>
</g>
</g>
</svg>
