<?xml version="1.0" encoding="UTF-8" standalone="no"?>
<!DOCTYPE svg PUBLIC "-//W3C//DTD SVG 1.1//EN"
 "http://www.w3.org/Graphics/SVG/1.1/DTD/svg11.dtd">
<!-- Generated by graphviz version 2.26.3 (20100126.1600)
 -->
<!-- Title: models_diagram Pages: 1 -->
<svg width="1298pt" height="494pt"
 viewBox="0.00 0.00 1298.00 494.00" xmlns="http://www.w3.org/2000/svg" xmlns:xlink="http://www.w3.org/1999/xlink">
<g id="graph1" class="graph" transform="scale(1 1) rotate(0) translate(4 490)">
<title>models_diagram</title>
<polygon fill="white" stroke="white" points="-4,5 -4,-490 1295,-490 1295,5 -4,5"/>
<!-- _diagram_info -->
<g id="node1" class="node"><title>_diagram_info</title>
<text text-anchor="start" x="8" y="-408.8" font-family="Times Roman,serif" font-size="13.00">Models diagram</text>
<text text-anchor="start" x="8" y="-391.8" font-family="Times Roman,serif" font-size="13.00">Date: Nov 28 2014 &#45; 17:01</text>
<text text-anchor="start" x="8" y="-374.8" font-family="Times Roman,serif" font-size="13.00">Migration version: 20130712112209</text>
<text text-anchor="start" x="8" y="-357.8" font-family="Times Roman,serif" font-size="13.00">Generated by RailRoady 1.2.0</text>
<text text-anchor="start" x="8" y="-340.8" font-family="Times Roman,serif" font-size="13.00">http://railroady.prestonlee.com</text>
</g>
<!-- PrivacyPolicy -->
<g id="node2" class="node"><title>PrivacyPolicy</title>
<polyline fill="none" stroke="black" points="279.5,-325 420.5,-325 "/>
<path fill="none" stroke="black" d="M420.5,-325C426.5,-325 432.5,-331 432.5,-337"/>
<polyline fill="none" stroke="black" points="432.5,-337 432.5,-419 "/>
<path fill="none" stroke="black" d="M432.5,-419C432.5,-425 426.5,-431 420.5,-431"/>
<polyline fill="none" stroke="black" points="420.5,-431 279.5,-431 "/>
<path fill="none" stroke="black" d="M279.5,-431C273.5,-431 267.5,-425 267.5,-419"/>
<polyline fill="none" stroke="black" points="267.5,-419 267.5,-337 "/>
<path fill="none" stroke="black" d="M267.5,-337C267.5,-331 273.5,-325 279.5,-325"/>
<text text-anchor="middle" x="350" y="-414.4" font-family="Times Roman,serif" font-size="14.00">PrivacyPolicy</text>
<polyline fill="none" stroke="black" points="267.5,-405 432.5,-405 "/>
<text text-anchor="start" x="275.5" y="-388.4" font-family="Times Roman,serif" font-size="14.00">id :integer</text>
<text text-anchor="start" x="275.5" y="-370.4" font-family="Times Roman,serif" font-size="14.00">document :string</text>
<text text-anchor="start" x="275.5" y="-352.4" font-family="Times Roman,serif" font-size="14.00">created_at :datetime</text>
<text text-anchor="start" x="275.5" y="-334.4" font-family="Times Roman,serif" font-size="14.00">updated_at :datetime</text>
</g>
<!-- SoftDeletable -->
<g id="node3" class="node"><title>SoftDeletable</title>
<polygon fill="none" stroke="black" stroke-dasharray="1,5" points="560,-396 450,-396 450,-360 560,-360 560,-396"/>
<text text-anchor="middle" x="505" y="-374.4" font-family="Times Roman,serif" font-size="14.00">SoftDeletable</text>
</g>
<!-- Organization -->
<g id="node4" class="node"><title>Organization</title>
<polyline fill="none" stroke="black" points="589.5,-271 740.5,-271 "/>
<path fill="none" stroke="black" d="M740.5,-271C746.5,-271 752.5,-277 752.5,-283"/>
<polyline fill="none" stroke="black" points="752.5,-283 752.5,-473 "/>
<path fill="none" stroke="black" d="M752.5,-473C752.5,-479 746.5,-485 740.5,-485"/>
<polyline fill="none" stroke="black" points="740.5,-485 589.5,-485 "/>
<path fill="none" stroke="black" d="M589.5,-485C583.5,-485 577.5,-479 577.5,-473"/>
<polyline fill="none" stroke="black" points="577.5,-473 577.5,-283 "/>
<path fill="none" stroke="black" d="M577.5,-283C577.5,-277 583.5,-271 589.5,-271"/>
<text text-anchor="middle" x="665" y="-468.4" font-family="Times Roman,serif" font-size="14.00">Organization</text>
<polyline fill="none" stroke="black" points="577.5,-459 752.5,-459 "/>
<text text-anchor="start" x="585.5" y="-442.4" font-family="Times Roman,serif" font-size="14.00">id :integer</text>
<text text-anchor="start" x="585.5" y="-424.4" font-family="Times Roman,serif" font-size="14.00">name :string</text>
<text text-anchor="start" x="585.5" y="-406.4" font-family="Times Roman,serif" font-size="14.00">created_at :datetime</text>
<text text-anchor="start" x="585.5" y="-388.4" font-family="Times Roman,serif" font-size="14.00">updated_at :datetime</text>
<text text-anchor="start" x="585.5" y="-370.4" font-family="Times Roman,serif" font-size="14.00">status :string</text>
<text text-anchor="start" x="585.5" y="-352.4" font-family="Times Roman,serif" font-size="14.00">default_locale :string</text>
<text text-anchor="start" x="585.5" y="-334.4" font-family="Times Roman,serif" font-size="14.00">org_type :string</text>
<text text-anchor="start" x="585.5" y="-316.4" font-family="Times Roman,serif" font-size="14.00">deleted_at :date</text>
<text text-anchor="start" x="585.5" y="-298.4" font-family="Times Roman,serif" font-size="14.00">allow_sharing :boolean</text>
<text text-anchor="start" x="585.5" y="-280.4" font-family="Times Roman,serif" font-size="14.00">logo :string</text>
</g>
<!-- User -->
<g id="node7" class="node"><title>User</title>
<polyline fill="none" stroke="black" points="567,-1 763,-1 "/>
<path fill="none" stroke="black" d="M763,-1C769,-1 775,-7 775,-13"/>
<polyline fill="none" stroke="black" points="775,-13 775,-221 "/>
<path fill="none" stroke="black" d="M775,-221C775,-227 769,-233 763,-233"/>
<polyline fill="none" stroke="black" points="763,-233 567,-233 "/>
<path fill="none" stroke="black" d="M567,-233C561,-233 555,-227 555,-221"/>
<polyline fill="none" stroke="black" points="555,-221 555,-13 "/>
<path fill="none" stroke="black" d="M555,-13C555,-7 561,-1 567,-1"/>
<text text-anchor="middle" x="665" y="-216.4" font-family="Times Roman,serif" font-size="14.00">User</text>
<polyline fill="none" stroke="black" points="555,-207 775,-207 "/>
<text text-anchor="start" x="563" y="-190.4" font-family="Times Roman,serif" font-size="14.00">id :integer</text>
<text text-anchor="start" x="563" y="-172.4" font-family="Times Roman,serif" font-size="14.00">name :string</text>
<text text-anchor="start" x="563" y="-154.4" font-family="Times Roman,serif" font-size="14.00">email :string</text>
<text text-anchor="start" x="563" y="-136.4" font-family="Times Roman,serif" font-size="14.00">password_digest :string</text>
<text text-anchor="start" x="563" y="-118.4" font-family="Times Roman,serif" font-size="14.00">created_at :datetime</text>
<text text-anchor="start" x="563" y="-100.4" font-family="Times Roman,serif" font-size="14.00">updated_at :datetime</text>
<text text-anchor="start" x="563" y="-82.4" font-family="Times Roman,serif" font-size="14.00">role :string</text>
<text text-anchor="start" x="563" y="-64.4" font-family="Times Roman,serif" font-size="14.00">organization_id :integer</text>
<text text-anchor="start" x="563" y="-46.4" font-family="Times Roman,serif" font-size="14.00">password_reset_token :string</text>
<text text-anchor="start" x="563" y="-28.4" font-family="Times Roman,serif" font-size="14.00">status :string</text>
<text text-anchor="start" x="563" y="-10.4" font-family="Times Roman,serif" font-size="14.00">deleted_at :date</text>
</g>
<!-- Organization&#45;&gt;User -->
<g id="edge2" class="edge"><title>Organization&#45;&gt;User</title>
<path fill="none" stroke="#e2881c" d="M665,-262.555C665,-256.159 665,-249.713 665,-243.281"/>
<ellipse fill="none" stroke="#e2881c" cx="665" cy="-266.711" rx="4" ry="4"/>
<polygon fill="#e2881c" stroke="#e2881c" points="665,-243.194 669.5,-233.194 665,-238.194 665,-233.194 665,-233.194 665,-233.194 665,-238.194 660.5,-233.194 665,-243.194 665,-243.194"/>
</g>
<!-- TermsOfService -->
<g id="node5" class="node"><title>TermsOfService</title>
<polyline fill="none" stroke="black" points="781.5,-325 922.5,-325 "/>
<path fill="none" stroke="black" d="M922.5,-325C928.5,-325 934.5,-331 934.5,-337"/>
<polyline fill="none" stroke="black" points="934.5,-337 934.5,-419 "/>
<path fill="none" stroke="black" d="M934.5,-419C934.5,-425 928.5,-431 922.5,-431"/>
<polyline fill="none" stroke="black" points="922.5,-431 781.5,-431 "/>
<path fill="none" stroke="black" d="M781.5,-431C775.5,-431 769.5,-425 769.5,-419"/>
<polyline fill="none" stroke="black" points="769.5,-419 769.5,-337 "/>
<path fill="none" stroke="black" d="M769.5,-337C769.5,-331 775.5,-325 781.5,-325"/>
<text text-anchor="middle" x="852" y="-414.4" font-family="Times Roman,serif" font-size="14.00">TermsOfService</text>
<polyline fill="none" stroke="black" points="769.5,-405 934.5,-405 "/>
<text text-anchor="start" x="777.5" y="-388.4" font-family="Times Roman,serif" font-size="14.00">id :integer</text>
<text text-anchor="start" x="777.5" y="-370.4" font-family="Times Roman,serif" font-size="14.00">document :string</text>
<text text-anchor="start" x="777.5" y="-352.4" font-family="Times Roman,serif" font-size="14.00">created_at :datetime</text>
<text text-anchor="start" x="777.5" y="-334.4" font-family="Times Roman,serif" font-size="14.00">updated_at :datetime</text>
</g>
<!-- Ability -->
<g id="node6" class="node"><title>Ability</title>
<polygon fill="none" stroke="black" points="952,-352 952,-404 1012,-404 1012,-352 952,-352"/>
<text text-anchor="middle" x="982" y="-387.4" font-family="Times Roman,serif" font-size="14.00">Ability</text>
<polyline fill="none" stroke="black" points="952,-378 1012,-378 "/>
<text text-anchor="middle" x="982" y="-361.4" font-family="Times Roman,serif" font-size="14.00"> </text>
</g>
<!-- Document -->
<g id="node8" class="node"><title>Document</title>
<polygon fill="none" stroke="black" stroke-dasharray="1,5" points="1118,-396 1030,-396 1030,-360 1118,-360 1118,-396"/>
<text text-anchor="middle" x="1074" y="-374.4" font-family="Times Roman,serif" font-size="14.00">Document</text>
</g>
<!-- DocumentPresenter -->
<g id="node9" class="node"><title>DocumentPresenter</title>
<polygon fill="none" stroke="black" points="1135.5,-352 1135.5,-404 1290.5,-404 1290.5,-352 1135.5,-352"/>
<text text-anchor="middle" x="1213" y="-387.4" font-family="Times Roman,serif" font-size="14.00">DocumentPresenter</text>
<polyline fill="none" stroke="black" points="1135.5,-378 1290.5,-378 "/>
<text text-anchor="middle" x="1213" y="-361.4" font-family="Times Roman,serif" font-size="14.00"> </text>
</g>
</g>
</svg>
